<svg xmlns="http://www.w3.org/2000/svg" viewBox="0 0 516.81 726.81">
<defs>
<style>.cls-1{fill:#54b2a1;}.cls-2{fill:#3a8476;}.cls-3{fill:#4ba899;}</style>
</defs>
<g id="Layer_2" data-name="Layer 2"><g id="Layer_2-2" data-name="Layer 2">
<polygon class="cls-1" points="0 202.43 0 557.28 74.48 599.7 74.48 244.85 0 202.43"/>
<polygon class="cls-2" points="0 202.43 73.48 160 146.97 202.43 74.22 245.59 0 202.43"/>
<polygon class="cls-2" points="74.22 245.59 146.97 202.43 146.97 557.28 74.22 599.28 74.22 245.59"/>
<polygon class="cls-1" points="0 42.43 0 137.28 74.48 179.7 74.48 84.85 0 42.43"/>
<polygon class="cls-3" points="0 42.43 73.48 0 146.97 42.43 74.22 85.59 0 42.43"/>
<polygon class="cls-2" points="74.22 85.59 146.97 42.43 146.97 137.28 74.22 179.28 74.22 85.59"/>
<polygon class="cls-1" points="222.45 245.39 222.45 684.71 296.93 726.81 296.93 287.48 222.45 245.39"/>
<polygon class="cls-3" points="222.45 245.39 295.93 202.96 369.42 245.06 296.67 288.22 222.45 245.39"/>
<polygon class="cls-2" points="296.67 288.22 369.42 245.06 369.42 684.38 296.67 726.38 296.67 288.22"/>
<polygon class="cls-1" points="110.59 103.47 110.59 198.32 444.33 387 444.33 292.14 110.59 103.47"/>
<polygon class="cls-3" points="110.59 103.47 184.08 61.04 516.81 249.72 444.07 292.88 110.59 103.47"/>
<polygon class="cls-2" points="444.07 292.88 516.81 249.72 516.81 344.57 444.07 386.57 444.07 292.88"/>
</g>
</g>
</svg>